<svg width="1600" height="1080" viewBox="0 0 1600 1080" fill="none" xmlns="http://www.w3.org/2000/svg">
  <defs>
    <linearGradient id="bg3" x1="0" y1="0" x2="1600" y2="1080" gradientUnits="userSpaceOnUse">
      <stop stop-color="#EDF4FA"/>
      <stop offset="1" stop-color="#F7F1E8"/>
    </linearGradient>
    <linearGradient id="surface3" x1="0" y1="0" x2="1" y2="1">
      <stop stop-color="#FFFFFF"/>
      <stop offset="1" stop-color="#FBFCFE"/>
    </linearGradient>
    <filter id="shadow3" x="-20%" y="-20%" width="140%" height="140%" color-interpolation-filters="sRGB">
      <feDropShadow dx="0" dy="14" stdDeviation="22" flood-color="#1A2B44" flood-opacity="0.11"/>
    </filter>
    <style>
      .title { font: 700 24px "Microsoft YaHei", "PingFang SC", sans-serif; fill: #18324A; }
      .subtitle { font: 700 18px "Microsoft YaHei", "PingFang SC", sans-serif; fill: #20384E; }
      .task { font: 700 20px "Microsoft YaHei", "PingFang SC", sans-serif; fill: #1C344A; }
      .body { font: 600 15px "Microsoft YaHei", "PingFang SC", sans-serif; fill: #2D465C; }
      .small { font: 500 12px "Microsoft YaHei", "PingFang SC", sans-serif; fill: #6F8497; }
      .tiny { font: 500 11px "Microsoft YaHei", "PingFang SC", sans-serif; fill: #8294A5; }
      .chipText { font: 600 12px "Microsoft YaHei", "PingFang SC", sans-serif; }
    </style>
  </defs>

  <rect width="1600" height="1080" fill="url(#bg3)"/>
  <rect x="28" y="26" width="1544" height="1028" rx="30" fill="#F8FBFD" stroke="#DCE6EF"/>

  <text x="62" y="72" class="title">Task Horizon 任务详情概念图 v3</text>
  <text x="62" y="98" class="small">重要性使用现有高/中/低图标体系；日期、时长、置顶在无值时用 lucide 风格图标占位</text>

  <rect x="54" y="128" width="760" height="900" rx="24" fill="url(#surface3)" stroke="#DBE5EF" filter="url(#shadow3)"/>
  <rect x="842" y="128" width="704" height="900" rx="24" fill="url(#surface3)" stroke="#DBE5EF" filter="url(#shadow3)"/>

  <text x="84" y="168" class="subtitle">任务列表</text>
  <text x="870" y="168" class="subtitle">任务详情</text>

  <rect x="78" y="190" width="708" height="44" rx="14" fill="#F2F6FA" stroke="#E1EAF3"/>
  <text x="100" y="218" class="small">工作 / 按时间 / 进行中</text>

  <rect x="84" y="268" width="696" height="76" rx="18" fill="#FFF7F3" stroke="#FFD8CA"/>
  <rect x="84" y="268" width="5" height="76" rx="3" fill="#FF875F"/>
  <circle cx="112" cy="306" r="10" fill="#FFFFFF" stroke="#E3693F" stroke-width="2"/>
  <text x="136" y="298" class="task">【正波拉断阀 低温】</text>
  <text x="136" y="321" class="small">3 个子任务 · 风险状态 · 时间信息尽量做摘要</text>
  <rect x="666" y="288" width="74" height="26" rx="8" fill="#FFF4BF" stroke="#ECD46D"/>
  <text x="690" y="305" class="chipText" fill="#9A7600">风险</text>

  <rect x="112" y="360" width="632" height="58" rx="16" fill="#FFFFFF" stroke="#E5EDF4"/>
  <circle cx="160" cy="390" r="9" fill="#FFFFFF" stroke="#AEBFCE" stroke-width="2"/>
  <text x="182" y="395" class="body">确认试制样件尺寸</text>
  <text x="626" y="395" class="tiny">03-31</text>

  <rect x="132" y="428" width="612" height="58" rx="16" fill="#ECF5FF" stroke="#BAD9FA"/>
  <circle cx="180" cy="458" r="9" fill="#FFFFFF" stroke="#5C99E7" stroke-width="2"/>
  <text x="202" y="463" class="body">补充试验条件和材料批次</text>
  <rect x="640" y="444" width="54" height="24" rx="8" fill="#EAF4FF" stroke="#BDD7F0"/>
  <text x="659" y="460" class="chipText" fill="#3073BD">进行</text>

  <rect x="112" y="496" width="632" height="58" rx="16" fill="#FFFFFF" stroke="#E5EDF4"/>
  <circle cx="160" cy="526" r="9" fill="#FFFFFF" stroke="#AEBFCE" stroke-width="2"/>
  <text x="182" y="531" class="body">整理测试结论并同步评审</text>
  <text x="626" y="531" class="tiny">04-02</text>

  <rect x="84" y="620" width="696" height="68" rx="18" fill="#FFFFFF" stroke="#E5EDF4"/>
  <circle cx="112" cy="654" r="10" fill="#FFFFFF" stroke="#AEBFCE" stroke-width="2"/>
  <text x="136" y="646" class="task">泵拆解报告 SVP60-1</text>
  <text x="136" y="668" class="small">列表只展示任务摘要，重操作放到右侧详情区</text>
  <rect x="684" y="640" width="44" height="24" rx="8" fill="#EEF6FF" stroke="#C6DCF6"/>
  <text x="700" y="656" class="chipText" fill="#2A71B8">中</text>

  <rect x="870" y="214" width="648" height="116" rx="20" fill="#FFFFFF" stroke="#E5EDF4"/>
  <circle cx="900" cy="258" r="13" fill="#FFFFFF" stroke="#E36B42" stroke-width="2.2"/>
  <path d="M894 258L900 264L910 252" stroke="#E36B42" stroke-width="2.4" stroke-linecap="round" stroke-linejoin="round"/>
  <text x="926" y="251" class="task">【正波拉断阀 低温】</text>
  <text x="926" y="279" class="small">📄 油气回收　　🧩 部件导入</text>

  <rect x="1394" y="230" width="34" height="34" rx="10" fill="#F4F7FA" stroke="#DCE6EF"/>
  <circle cx="1411" cy="247" r="6" fill="none" stroke="#7A8D9E" stroke-width="1.8"/>
  <path d="M1411 239V242M1411 252V255M1403 247H1406M1416 247H1419M1406 242L1408 244M1414 250L1416 252M1416 242L1414 244M1408 250L1406 252" stroke="#7A8D9E" stroke-width="1.6" stroke-linecap="round"/>

  <rect x="1438" y="230" width="34" height="34" rx="10" fill="#FFF0DC" stroke="#F5C483"/>
  <svg x="1446" y="238" width="18" height="18" viewBox="0 0 18 18">
    <line x1="2.5" y1="6.2" x2="15.5" y2="6.2" stroke="#D87A14" stroke-width="2.8" stroke-linecap="round"/>
    <line x1="2.5" y1="11.2" x2="15.5" y2="11.2" stroke="#D87A14" stroke-width="2.8" stroke-linecap="round"/>
  </svg>

  <rect x="1482" y="230" width="34" height="34" rx="10" fill="#F4F7FA" stroke="#DCE6EF"/>
  <circle cx="1491" cy="247" r="2" fill="#7A8D9E"/>
  <circle cx="1499" cy="247" r="2" fill="#7A8D9E"/>
  <circle cx="1507" cy="247" r="2" fill="#7A8D9E"/>

  <rect x="1428" y="270" width="116" height="142" rx="14" fill="#FFFFFF" stroke="#DCE6EF" filter="url(#shadow3)"/>
  <rect x="1440" y="284" width="92" height="26" rx="8" fill="#FFE7E0" stroke="#F2B2A5"/>
  <svg x="1452" y="289" width="16" height="16" viewBox="0 0 18 18">
    <polyline points="2.5,10.1 9,6.1 15.5,10.1" fill="none" stroke="#C95534" stroke-width="2.8" stroke-linecap="round" stroke-linejoin="round"/>
  </svg>
  <text x="1476" y="301" class="chipText" fill="#C95534">高</text>

  <rect x="1440" y="316" width="92" height="26" rx="8" fill="#FFF0DC" stroke="#F5C483"/>
  <svg x="1452" y="321" width="16" height="16" viewBox="0 0 18 18">
    <line x1="2.5" y1="6.2" x2="15.5" y2="6.2" stroke="#D47A15" stroke-width="2.8" stroke-linecap="round"/>
    <line x1="2.5" y1="11.2" x2="15.5" y2="11.2" stroke="#D47A15" stroke-width="2.8" stroke-linecap="round"/>
  </svg>
  <text x="1476" y="333" class="chipText" fill="#D47A15">中</text>

  <rect x="1440" y="348" width="92" height="26" rx="8" fill="#EAF4FF" stroke="#BFD7F2"/>
  <svg x="1452" y="353" width="16" height="16" viewBox="0 0 18 18">
    <polyline points="2.5,7.1 9,11.1 15.5,7.1" fill="none" stroke="#2F72BB" stroke-width="2.8" stroke-linecap="round" stroke-linejoin="round"/>
  </svg>
  <text x="1476" y="365" class="chipText" fill="#2F72BB">低</text>

  <rect x="1440" y="380" width="92" height="20" rx="7" fill="#F4F6F8" stroke="#D6E0E9"/>
  <svg x="1453" y="383" width="14" height="14" viewBox="0 0 18 18">
    <circle cx="9" cy="9" r="5.2" fill="none" stroke="#80919F" stroke-width="2.4"/>
  </svg>
  <text x="1476" y="394" class="tiny" fill="#8193A1">无</text>

  <rect x="870" y="348" width="648" height="66" rx="18" fill="#F8FBFE" stroke="#E2EBF3"/>
  <rect x="892" y="369" width="98" height="24" rx="8" fill="#FFF4BF" stroke="#ECD46D"/>
  <text x="925" y="385" class="chipText" fill="#9A7600">有风险</text>

  <rect x="1002" y="369" width="92" height="24" rx="8" fill="#F3F6FA" stroke="#DCE6EF"/>
  <text x="1027" y="385" class="chipText" fill="#5E7386">03/30</text>

  <rect x="1106" y="369" width="34" height="24" rx="8" fill="#F3F6FA" stroke="#DCE6EF"/>
  <svg x="1116" y="374" width="14" height="14" viewBox="0 0 24 24">
    <path d="M8 2V5M16 2V5M3 9H21M5 4H19C20.1 4 21 4.9 21 6V19C21 20.1 20.1 21 19 21H5C3.9 21 3 20.1 3 19V6C3 4.9 3.9 4 5 4Z" fill="none" stroke="#7E90A2" stroke-width="2" stroke-linecap="round" stroke-linejoin="round"/>
  </svg>

  <rect x="1152" y="369" width="34" height="24" rx="8" fill="#F3F6FA" stroke="#DCE6EF"/>
  <svg x="1161" y="373" width="16" height="16" viewBox="0 0 24 24">
    <circle cx="12" cy="12" r="9" fill="none" stroke="#7E90A2" stroke-width="2"/>
    <path d="M12 7V12L15 15" fill="none" stroke="#7E90A2" stroke-width="2" stroke-linecap="round" stroke-linejoin="round"/>
  </svg>

  <rect x="1198" y="369" width="34" height="24" rx="8" fill="#F3F6FA" stroke="#DCE6EF"/>
  <svg x="1207" y="373" width="16" height="16" viewBox="0 0 24 24">
    <path d="M16 3L21 8L14 15L9 10L16 3Z" fill="none" stroke="#7E90A2" stroke-width="2" stroke-linejoin="round"/>
    <path d="M9 10L4 21L15 16" fill="none" stroke="#7E90A2" stroke-width="2" stroke-linecap="round" stroke-linejoin="round"/>
  </svg>

  <rect x="870" y="438" width="648" height="420" rx="22" fill="#FFFFFF" stroke="#E2EBF3"/>
  <text x="896" y="474" class="subtitle">子任务</text>

  <rect x="896" y="492" width="596" height="40" rx="14" fill="#F4F7FA" stroke="#E2EBF3"/>
  <text x="920" y="517" class="small">+ 添加子任务</text>

  <line x1="920" y1="554" x2="920" y2="748" stroke="#D2DDE8" stroke-width="2"/>

  <circle cx="940" cy="576" r="9" fill="#FFFFFF" stroke="#AEBFCE" stroke-width="2"/>
  <text x="964" y="581" class="body">确认低温工况的样件编号</text>
  <rect x="1326" y="564" width="54" height="24" rx="8" fill="#EAF4FF" stroke="#BDD7F0"/>
  <text x="1345" y="580" class="chipText" fill="#3073BD">进行</text>

  <circle cx="940" cy="622" r="9" fill="#FFFFFF" stroke="#AEBFCE" stroke-width="2"/>
  <text x="964" y="627" class="body">补齐试验照片与视频</text>
  <rect x="1326" y="610" width="54" height="24" rx="8" fill="#F4F6F8" stroke="#D7E1E9"/>
  <text x="1345" y="626" class="chipText" fill="#80919F">待办</text>

  <line x1="954" y1="638" x2="954" y2="676" stroke="#D2DDE8" stroke-width="2"/>
  <circle cx="974" cy="660" r="8" fill="#FFFFFF" stroke="#AEBFCE" stroke-width="2"/>
  <text x="996" y="665" class="small">补拍密封位置细节</text>

  <circle cx="940" cy="704" r="9" fill="#FFFFFF" stroke="#AEBFCE" stroke-width="2"/>
  <path d="M935 704L940 709L948 700" stroke="#8BA6B9" stroke-width="2.2" stroke-linecap="round" stroke-linejoin="round"/>
  <text x="964" y="709" class="body" fill="#91A1AF">整理实验结论初稿</text>

  <circle cx="940" cy="750" r="9" fill="#FFFFFF" stroke="#AEBFCE" stroke-width="2"/>
  <text x="964" y="755" class="body">同步评审并更新备注</text>

  <rect x="896" y="786" width="118" height="24" rx="8" fill="#F3F6FA" stroke="#DCE6EF"/>
  <text x="925" y="802" class="chipText" fill="#5E7386">3 / 5 已完成</text>

  <rect x="870" y="882" width="648" height="118" rx="22" fill="#FFFFFF" stroke="#E2EBF3"/>
  <text x="896" y="916" class="subtitle">备注</text>
  <rect x="896" y="934" width="596" height="42" rx="14" fill="#F8FBFE" stroke="#E2EBF3"/>
  <text x="920" y="960" class="small">需要补齐试验条件、确认样件批次，评审前同步照片与视频。</text>
</svg>
